<?xml version="1.0" encoding="UTF-8"?>
<svg xmlns="http://www.w3.org/2000/svg" xmlns:xlink="http://www.w3.org/1999/xlink" width="3840px" height="1375px" viewBox="0 0 3840 1375" version="1.1">
<g id="surface1">
<path style=" stroke:none;fill-rule:nonzero;fill:rgb(0%,0%,0%);fill-opacity:1;" d="M 1839.617188 740.832031 C 1860.945312 732.621094 1880.601562 720.605469 1897.636719 705.363281 C 1905.972656 697.925781 1910.96875 687.445312 1911.507812 676.285156 C 1912.046875 665.125 1908.078125 654.214844 1900.5 646.007812 C 1884.675781 628.898438 1858.066406 627.625 1840.683594 643.144531 C 1831.492188 651.480469 1820.828125 658.027344 1809.238281 662.460938 C 1797.664062 666.773438 1785.402344 668.960938 1773.050781 668.914062 C 1716.726562 668.914062 1671.066406 623.242188 1671.066406 566.90625 C 1671.066406 510.570312 1716.726562 464.902344 1773.050781 464.902344 C 1785.421875 464.796875 1797.703125 467.042969 1809.238281 471.523438 C 1820.828125 475.972656 1831.492188 482.535156 1840.683594 490.882812 C 1858.066406 506.402344 1884.675781 505.128906 1900.5 488.019531 C 1908.089844 479.816406 1912.0625 468.90625 1911.527344 457.742188 C 1910.988281 446.574219 1905.980469 436.097656 1897.636719 428.664062 C 1863.335938 397.945312 1818.960938 380.882812 1772.921875 380.714844 C 1705.75 379.699219 1643.242188 414.957031 1609.359375 472.976562 C 1575.476562 530.996094 1575.476562 602.773438 1609.359375 660.792969 C 1643.242188 718.8125 1705.75 754.074219 1772.921875 753.054688 C 1795.71875 753.175781 1818.339844 749.03125 1839.617188 740.832031 Z M 1839.617188 740.832031 "/>
<path style=" stroke:none;fill-rule:nonzero;fill:rgb(0%,0%,0%);fill-opacity:1;" d="M 3595.53125 565.753906 C 3595.441406 501.308594 3562.066406 441.484375 3507.28125 407.5625 C 3452.496094 373.640625 3384.078125 370.4375 3326.363281 399.089844 L 3326.363281 287.984375 C 3324.386719 265.949219 3305.925781 249.066406 3283.808594 249.066406 C 3261.691406 249.066406 3243.230469 265.949219 3241.257812 287.984375 L 3241.257812 707.160156 C 3241.375 730.507812 3260.382812 749.347656 3283.726562 749.253906 C 3298.59375 749.230469 3312.378906 741.476562 3320.125 728.78125 C 3377.816406 760.128906 3447.734375 758.832031 3504.222656 725.367188 C 3560.710938 691.90625 3595.457031 631.207031 3595.703125 565.539062 Z M 3480.859375 637.972656 C 3461.855469 657.113281 3436.003906 667.878906 3409.039062 667.886719 C 3391.132812 667.992188 3373.527344 663.285156 3358.066406 654.253906 C 3345.515625 646.71875 3334.675781 636.644531 3326.238281 624.683594 L 3326.238281 507.207031 C 3351.707031 470.917969 3397.792969 455.375 3440.035156 468.832031 C 3482.277344 482.289062 3510.886719 521.625 3510.679688 565.96875 C 3510.519531 592.941406 3499.816406 618.785156 3480.859375 637.972656 Z M 3480.859375 637.972656 "/>
<path style=" stroke:none;fill-rule:nonzero;fill:rgb(0%,0%,0%);fill-opacity:1;" d="M 2054.523438 567.164062 C 2054.710938 539.398438 2066.628906 513.007812 2087.335938 494.515625 C 2109.359375 474.960938 2137.867188 464.300781 2167.316406 464.601562 C 2182.054688 465.796875 2196.214844 458.609375 2203.949219 446.003906 C 2211.6875 433.398438 2211.6875 417.515625 2203.949219 404.914062 C 2196.214844 392.308594 2182.054688 385.121094 2167.316406 386.3125 C 2123.402344 386.089844 2080.542969 399.757812 2044.867188 425.371094 C 2043.371094 421.953125 2042.003906 418.535156 2040.339844 415.117188 L 2037.859375 409.988281 C 2026.921875 389.324219 2001.410156 381.289062 1980.609375 391.953125 C 1970.636719 396.960938 1963.09375 405.765625 1959.671875 416.386719 C 1956.25 427.007812 1957.234375 438.558594 1962.40625 448.449219 L 1965.054688 453.363281 C 1966.449219 455.972656 1967.59375 458.703125 1968.476562 461.523438 L 1968.476562 462.851562 C 1969.238281 466.140625 1969.554688 469.519531 1969.414062 472.890625 L 1969.414062 708.527344 C 1971.390625 730.558594 1989.851562 747.441406 2011.96875 747.441406 C 2034.085938 747.441406 2052.546875 730.558594 2054.523438 708.527344 L 2054.523438 567.078125 Z M 2054.523438 567.164062 "/>
<path style=" stroke:none;fill-rule:nonzero;fill:rgb(0%,0%,0%);fill-opacity:1;" d="M 2580.425781 429.347656 C 2579.699219 406.46875 2560.949219 388.300781 2538.066406 388.300781 C 2515.179688 388.300781 2496.429688 406.46875 2495.703125 429.347656 L 2495.703125 582.164062 C 2495.703125 582.71875 2495.703125 583.316406 2495.703125 584.042969 C 2495.988281 606.113281 2487.378906 627.367188 2471.820312 643.015625 C 2456.6875 658.277344 2436.058594 666.824219 2414.566406 666.734375 C 2392.953125 666.8125 2372.207031 658.238281 2356.957031 642.917969 C 2341.703125 627.601562 2333.21875 606.816406 2333.390625 585.195312 L 2333.390625 429.347656 C 2332.664062 406.421875 2313.875 388.214844 2290.941406 388.214844 C 2268.011719 388.214844 2249.222656 406.421875 2248.496094 429.347656 L 2248.496094 585.195312 C 2248.707031 652.394531 2289.347656 712.859375 2351.484375 738.414062 C 2413.621094 763.972656 2485.03125 749.597656 2532.445312 701.988281 C 2563.46875 670.597656 2580.835938 628.222656 2580.769531 584.085938 C 2580.769531 583.53125 2580.769531 582.933594 2580.769531 582.375 Z M 2580.425781 429.347656 "/>
<path style=" stroke:none;fill-rule:nonzero;fill:rgb(0%,0%,0%);fill-opacity:1;" d="M 3029.425781 380.972656 C 2988.359375 381 2948.976562 397.285156 2919.878906 426.269531 C 2918.9375 427.210938 2917.996094 428.363281 2917.015625 429.304688 C 2916.074219 428.363281 2915.136719 427.210938 2914.152344 426.269531 C 2861.332031 373.417969 2778.28125 365.917969 2716.847656 408.449219 C 2705.378906 389.167969 2680.957031 382.039062 2660.921875 392.125 C 2650.949219 397.132812 2643.40625 405.933594 2639.984375 416.558594 C 2636.5625 427.179688 2637.546875 438.730469 2642.71875 448.621094 C 2644.996094 452.960938 2646.949219 457.457031 2648.574219 462.082031 C 2649.613281 465.644531 2650.058594 469.355469 2649.898438 473.0625 L 2649.898438 708.527344 C 2649.898438 731.988281 2668.910156 751.003906 2692.367188 751.003906 C 2715.820312 751.003906 2734.835938 731.988281 2734.835938 708.527344 L 2734.835938 535.070312 C 2734.6875 516.484375 2741.980469 498.613281 2755.085938 485.441406 C 2768.191406 472.265625 2786.023438 464.886719 2804.605469 464.945312 C 2843.035156 464.824219 2874.28125 495.902344 2874.375 534.34375 L 2874.375 708.398438 C 2876.351562 730.433594 2894.8125 747.3125 2916.929688 747.3125 C 2939.046875 747.3125 2957.507812 730.433594 2959.484375 708.398438 L 2959.484375 534.941406 C 2959.335938 516.359375 2966.628906 498.484375 2979.734375 485.3125 C 2992.839844 472.140625 3010.671875 464.757812 3029.253906 464.816406 C 3047.71875 464.765625 3065.445312 472.070312 3078.515625 485.113281 C 3091.648438 498.300781 3099.007812 516.160156 3098.980469 534.769531 L 3098.980469 708.441406 C 3098.980469 731.902344 3117.996094 750.917969 3141.449219 750.917969 C 3164.90625 750.917969 3183.917969 731.902344 3183.917969 708.441406 L 3183.917969 534.984375 C 3183.917969 494.066406 3167.621094 454.832031 3138.628906 425.960938 C 3109.632812 397.089844 3070.335938 380.960938 3029.425781 381.144531 Z M 3029.425781 380.972656 "/>
<path style=" stroke:none;fill-rule:nonzero;fill:rgb(0%,0%,0%);fill-opacity:1;" d="M 1853.757812 1088.601562 C 1816.675781 1086.867188 1787.46875 1056.34375 1787.367188 1019.214844 C 1787.265625 982.082031 1816.300781 951.398438 1853.375 949.460938 C 1872.152344 948.65625 1890.308594 956.308594 1902.847656 970.3125 L 1921.820312 950.230469 C 1903.574219 932.429688 1878.9375 922.726562 1853.457031 923.308594 C 1801.378906 924.40625 1759.734375 966.949219 1759.734375 1019.050781 C 1759.734375 1071.15625 1801.378906 1113.695312 1853.457031 1114.796875 C 1879.507812 1115.34375 1904.644531 1105.199219 1923.015625 1086.722656 L 1904.046875 1066.636719 C 1891.460938 1081.179688 1872.976562 1089.253906 1853.757812 1088.601562 Z M 1853.757812 1088.601562 "/>
<path style=" stroke:none;fill-rule:nonzero;fill:rgb(0%,0%,0%);fill-opacity:1;" d="M 3026.433594 856.214844 C 3015.746094 856.214844 3007.078125 864.882812 3007.078125 875.574219 C 3007.078125 886.265625 3015.746094 894.933594 3026.433594 894.933594 C 3037.125 894.933594 3045.789062 886.265625 3045.789062 875.574219 C 3045.765625 864.890625 3037.113281 856.238281 3026.433594 856.214844 Z M 3026.433594 856.214844 "/>
<path style=" stroke:none;fill-rule:nonzero;fill:rgb(0%,0%,0%);fill-opacity:1;" d="M 3284.878906 923.308594 C 3259.699219 922.371094 3235.296875 932.109375 3217.683594 950.128906 C 3200.070312 968.144531 3190.878906 992.765625 3192.378906 1017.917969 C 3190.9375 1043.632812 3200.363281 1068.765625 3218.351562 1087.1875 C 3236.339844 1105.609375 3261.238281 1115.628906 3286.972656 1114.796875 C 3313.664062 1115.207031 3339.453125 1105.125 3358.792969 1086.722656 L 3342.300781 1066.636719 C 3327.542969 1081.277344 3307.542969 1089.402344 3286.757812 1089.199219 C 3252.136719 1090.585938 3222.789062 1063.96875 3220.789062 1029.371094 L 3367.507812 1029.371094 C 3369.011719 1021.8125 3369.84375 1014.132812 3369.988281 1006.425781 C 3370.796875 983.785156 3362.023438 961.859375 3345.816406 946.03125 C 3329.613281 930.207031 3307.484375 921.957031 3284.878906 923.308594 Z M 3340.976562 1005.015625 L 3220.789062 1005.015625 C 3223.597656 972.277344 3251.671875 947.550781 3284.492188 948.90625 C 3299.605469 947.855469 3314.441406 953.335938 3325.242188 963.960938 C 3336.042969 974.582031 3341.769531 989.328125 3340.976562 1004.457031 Z M 3340.976562 1005.015625 "/>
<path style=" stroke:none;fill-rule:nonzero;fill:rgb(0%,0%,0%);fill-opacity:1;" d="M 3581.648438 1005.058594 C 3546.015625 998.433594 3537.128906 993.304688 3537.128906 978.902344 C 3537.128906 959.929688 3553.449219 949.714844 3583.398438 949.714844 C 3603.132812 949.375 3622.566406 954.570312 3639.496094 964.714844 L 3652.570312 942.539062 C 3632.042969 929.859375 3608.335938 923.28125 3584.210938 923.5625 C 3549.519531 923.5625 3508.757812 936.382812 3508.757812 979.671875 C 3508.757812 1013.21875 3532.8125 1022.707031 3577.589844 1030.953125 C 3604.890625 1036.082031 3628.175781 1040.054688 3628.175781 1059.757812 C 3628.175781 1081.933594 3603.734375 1088.773438 3579.851562 1088.773438 C 3556.777344 1089.046875 3534.117188 1082.585938 3514.652344 1070.183594 L 3501.582031 1092.191406 C 3524.765625 1107.238281 3551.828125 1115.210938 3579.46875 1115.140625 C 3624.96875 1115.140625 3656.628906 1094.839844 3656.628906 1057.875 C 3656.628906 1019.457031 3622.40625 1012.621094 3581.648438 1005.058594 Z M 3581.648438 1005.058594 "/>
<path style=" stroke:none;fill-rule:nonzero;fill:rgb(0%,0%,0%);fill-opacity:1;" d="M 2467.503906 923.308594 C 2428.730469 923.011719 2393.609375 946.148438 2378.570312 981.894531 C 2363.527344 1017.636719 2371.535156 1058.929688 2398.847656 1086.457031 C 2426.160156 1113.984375 2467.382812 1122.308594 2503.234375 1107.535156 C 2539.082031 1092.761719 2562.480469 1057.8125 2562.480469 1019.03125 C 2563.632812 993.433594 2554.023438 968.523438 2535.980469 950.339844 C 2517.933594 932.152344 2493.101562 922.347656 2467.503906 923.308594 Z M 2467.503906 1088.644531 C 2439.054688 1090.078125 2412.597656 1074.035156 2400.710938 1048.144531 C 2388.824219 1022.25 2393.902344 991.726562 2413.53125 971.078125 C 2433.160156 950.429688 2463.382812 943.820312 2489.839844 954.390625 C 2516.292969 964.960938 2533.640625 990.582031 2533.644531 1019.074219 C 2535.082031 1037.324219 2528.695312 1055.328125 2516.078125 1068.59375 C 2503.460938 1081.855469 2485.800781 1089.132812 2467.503906 1088.601562 Z M 2467.503906 1088.644531 "/>
<path style=" stroke:none;fill-rule:nonzero;fill:rgb(0%,0%,0%);fill-opacity:1;" d="M 3012.589844 928.050781 L 3039.894531 928.050781 L 3039.894531 1110.054688 L 3012.589844 1110.054688 Z M 3012.589844 928.050781 "/>
<path style=" stroke:none;fill-rule:nonzero;fill:rgb(0%,0%,0%);fill-opacity:1;" d="M 2142.238281 923.308594 C 2103.464844 923.011719 2068.34375 946.148438 2053.300781 981.894531 C 2038.261719 1017.636719 2046.269531 1058.929688 2073.582031 1086.457031 C 2100.894531 1113.984375 2142.113281 1122.308594 2177.964844 1107.535156 C 2213.816406 1092.761719 2237.214844 1057.8125 2237.214844 1019.03125 C 2238.367188 993.433594 2228.757812 968.523438 2210.710938 950.339844 C 2192.667969 932.152344 2167.835938 922.347656 2142.238281 923.308594 Z M 2142.238281 1088.644531 C 2113.789062 1090.078125 2087.332031 1074.035156 2075.445312 1048.144531 C 2063.558594 1022.25 2068.636719 991.726562 2088.265625 971.078125 C 2107.894531 950.429688 2138.117188 943.820312 2164.570312 954.390625 C 2191.023438 964.960938 2208.375 990.582031 2208.375 1019.074219 C 2209.773438 1037.316406 2203.375 1055.292969 2190.765625 1068.550781 C 2178.15625 1081.804688 2160.523438 1089.089844 2142.238281 1088.601562 Z M 2142.238281 1088.644531 "/>
<path style=" stroke:none;fill-rule:nonzero;fill:rgb(0%,0%,0%);fill-opacity:1;" d="M 2868.734375 928.050781 L 2830.839844 928.050781 L 2737.183594 1025.3125 L 2737.183594 837.070312 L 2709.882812 837.070312 L 2709.882812 1110.265625 L 2737.183594 1110.265625 L 2737.183594 1063.601562 L 2773.03125 1026.421875 L 2837.121094 1110.226562 L 2870.871094 1110.226562 L 2792.042969 1007.664062 Z M 2868.734375 928.050781 "/>
<path style=" stroke:none;fill-rule:nonzero;fill:rgb(0%,0%,0%);fill-opacity:1;" d="M 687.488281 0 C 1067.179688 0 1374.980469 307.863281 1374.980469 687.628906 C 1374.980469 1067.398438 1067.179688 1375.261719 687.488281 1375.261719 C 307.800781 1375.261719 0 1067.398438 0 687.628906 C 0 307.863281 307.800781 0 687.488281 0 Z M 687.488281 0 "/>
<path style=" stroke:none;fill-rule:nonzero;fill:rgb(100%,100%,100%);fill-opacity:1;" d="M 1101.710938 445.285156 C 1087.71875 440.238281 1078.421875 426.917969 1078.511719 412.039062 C 1078.457031 409.285156 1078.703125 406.535156 1079.238281 403.835938 L 1079.238281 403.40625 C 1093.21875 374.125 1089.117188 345.246094 1070.820312 325.761719 L 1070.265625 325.160156 C 1048.820312 303.222656 1023.683594 285.230469 996.007812 272 L 994.640625 271.101562 L 992.503906 270.035156 L 989.34375 268.539062 L 986.90625 267.214844 L 985.414062 266.488281 L 983.703125 265.804688 C 981.738281 264.964844 979.726562 264.234375 977.679688 263.625 C 976.824219 263.28125 975.757812 262.898438 974.515625 262.515625 L 973.023438 261.914062 L 968.492188 260.207031 L 965.585938 259.179688 C 963.671875 258.433594 961.71875 257.792969 959.734375 257.257812 L 957.128906 256.488281 L 956.488281 256.488281 L 954.4375 255.804688 L 953.710938 255.804688 C 952.640625 255.460938 951.230469 255.035156 949.4375 254.652344 L 942.515625 252.898438 L 937.175781 251.148438 L 933.457031 251.148438 C 931.320312 250.675781 929.1875 250.25 926.964844 249.863281 L 924.101562 249.394531 L 923.632812 249.394531 C 920.769531 248.925781 917.648438 248.410156 914.230469 248.070312 C 913.292969 248.070312 912.136719 247.726562 910.898438 247.640625 L 906.328125 247.257812 L 905.175781 247.257812 L 902.78125 246.957031 L 897.867188 246.957031 C 892.613281 246.574219 887.65625 246.574219 883.257812 246.574219 C 875.863281 246.574219 868.300781 246.917969 860.699219 247.640625 C 841.90625 231.269531 820.816406 217.734375 798.105469 207.472656 C 705.753906 165.261719 597.285156 180.71875 520.390625 247.042969 C 516.121094 246.789062 511.847656 246.574219 507.359375 246.574219 C 383.839844 247.800781 277.988281 335.242188 253.445312 456.332031 C 228.898438 577.421875 292.339844 699.191406 405.632812 748.441406 L 405.632812 904.460938 L 382.988281 904.460938 C 360.011719 903.863281 338.523438 915.78125 326.859375 935.589844 C 315.195312 955.398438 315.195312 979.976562 326.859375 999.78125 C 338.523438 1019.589844 360.011719 1031.507812 382.988281 1030.910156 L 482.195312 1030.910156 C 478.054688 1039.796875 476.035156 1049.527344 476.300781 1059.328125 C 476.703125 1076.113281 483.90625 1092.015625 496.253906 1103.386719 C 578.292969 1180.496094 697.492188 1203.257812 802.164062 1161.804688 C 836.210938 1148.316406 867.355469 1128.410156 893.894531 1103.171875 C 913.65625 1084.621094 919.257812 1055.46875 907.78125 1030.910156 L 1007.886719 1030.910156 C 1030.859375 1031.507812 1052.351562 1019.589844 1064.015625 999.78125 C 1075.679688 979.976562 1075.679688 955.398438 1064.015625 935.589844 C 1052.351562 915.78125 1030.859375 903.863281 1007.886719 904.460938 L 985.242188 904.460938 L 985.242188 749.167969 L 989.8125 748.011719 L 992.375 745.449219 C 997.589844 743.054688 1002.375 740.535156 1006.773438 738.226562 L 1009.382812 736.730469 C 1013.140625 734.722656 1017.371094 732.457031 1021.769531 729.722656 L 1022.539062 729.210938 C 1024.226562 728.195312 1025.851562 727.082031 1027.410156 725.875 C 1029.425781 724.726562 1031.339844 723.410156 1033.136719 721.945312 C 1034.417969 721.089844 1036.210938 719.894531 1038.179688 718.355469 C 1040.144531 716.816406 1040.996094 716.175781 1041.808594 715.535156 L 1042.535156 715.066406 L 1043.859375 714.039062 L 1046.210938 712.203125 C 1048.347656 710.578125 1050.695312 708.699219 1053.175781 706.5625 C 1054.796875 705.195312 1056.890625 703.441406 1059.113281 701.304688 L 1061.589844 699.082031 L 1062.703125 698.058594 L 1065.691406 695.535156 L 1067.65625 693.101562 C 1070.863281 690.066406 1073.597656 687.074219 1075.902344 684.554688 L 1078.210938 682.03125 L 1078.597656 681.605469 L 1079.363281 680.835938 L 1086.117188 672.929688 L 1092.4375 664.382812 C 1093.207031 663.484375 1093.976562 662.589844 1094.660156 661.734375 C 1096.027344 660.011719 1097.296875 658.210938 1098.464844 656.347656 L 1098.761719 656.007812 L 1099.359375 655.152344 C 1100.664062 653.375 1101.832031 651.503906 1102.863281 649.554688 C 1103.261719 648.898438 1103.648438 648.214844 1104.015625 647.503906 L 1104.273438 647.117188 C 1105.726562 644.894531 1107.519531 642.160156 1109.316406 638.957031 C 1110.167969 637.503906 1111.324219 635.496094 1112.476562 633.101562 C 1114.441406 629.597656 1116.320312 625.835938 1118.371094 621.476562 L 1118.757812 620.625 L 1119.140625 619.683594 L 1119.441406 619.042969 L 1120.382812 616.863281 C 1122.046875 613.1875 1123.757812 609.511719 1125.421875 605.582031 L 1126.0625 604.085938 L 1127.132812 600.921875 C 1138.660156 571.128906 1144.585938 539.457031 1144.605469 507.507812 L 1144.605469 505.96875 C 1145.074219 478.546875 1127.710938 453.988281 1101.710938 445.285156 Z M 1101.710938 445.285156 "/>
<path style=" stroke:none;fill-rule:nonzero;fill:rgb(0%,0%,0%);fill-opacity:1;" d="M 444.382812 721.261719 L 444.382812 942.964844 L 383.117188 942.964844 C 369.546875 942.964844 358.550781 953.964844 358.550781 967.535156 C 358.550781 981.105469 369.546875 992.109375 383.117188 992.109375 L 603.109375 992.109375 C 613.476562 1003.175781 625.710938 1012.332031 639.253906 1019.160156 C 674.714844 1036.828125 716.414062 1036.828125 751.875 1019.160156 C 765.417969 1012.332031 777.652344 1003.175781 788.023438 992.109375 L 1008.015625 992.109375 C 1021.582031 992.109375 1032.582031 981.105469 1032.582031 967.535156 C 1032.582031 953.964844 1021.582031 942.964844 1008.015625 942.964844 L 946.746094 942.964844 L 946.746094 720.960938 C 948.113281 720.40625 949.78125 720.152344 951.019531 719.59375 C 954.308594 718.738281 954.863281 718.484375 955.164062 718.484375 C 959.007812 717.117188 963.152344 715.707031 967.039062 714.210938 C 968.152344 713.953125 968.964844 713.398438 970.074219 713.097656 C 970.332031 712.800781 970.886719 712.800781 971.183594 712.542969 C 977.25 710.066406 983.0625 707.03125 988.871094 703.996094 L 990.796875 702.886719 C 994.382812 700.964844 997.972656 699.039062 1001.5625 696.816406 C 1004.894531 694.339844 1005.707031 694.082031 1006.261719 693.527344 L 1008.183594 692.417969 C 1011.472656 689.9375 1013.398438 688.828125 1015.0625 687.460938 C 1016.730469 686.089844 1018.097656 684.980469 1019.761719 683.871094 C 1022.539062 681.648438 1025.574219 679.597656 1028.050781 677.246094 C 1029.71875 675.878906 1031.382812 674.46875 1033.007812 672.972656 C 1034.632812 671.476562 1036.339844 669.9375 1037.964844 668.699219 L 1039.074219 667.332031 L 1039.886719 666.519531 C 1042.601562 663.992188 1045.179688 661.324219 1047.621094 658.527344 C 1048.730469 657.417969 1049.839844 656.050781 1050.910156 654.9375 L 1055.867188 649.125 L 1060.820312 642.460938 C 1061.933594 640.792969 1063.300781 639.425781 1064.410156 638.1875 C 1065.523438 636.949219 1066.332031 635.152344 1067.445312 633.914062 C 1069.066406 631.136719 1069.367188 630.878906 1069.625 630.324219 C 1069.878906 629.769531 1069.878906 629.511719 1070.179688 629.210938 C 1072.101562 626.179688 1074.023438 623.402344 1075.691406 620.367188 C 1079.835938 612.761719 1081.5 609.46875 1083.167969 605.878906 C 1083.722656 604.511719 1084.277344 603.402344 1084.832031 602.035156 C 1086.5 598.445312 1088.167969 594.855469 1089.789062 591.007812 L 1090.601562 588.53125 C 1100.582031 562.917969 1105.722656 535.679688 1105.769531 508.191406 L 1105.769531 505.5 C 1106.023438 494.808594 1099.3125 485.1875 1089.191406 481.738281 C 1059.53125 471.34375 1039.707031 443.300781 1039.800781 411.867188 C 1039.753906 406.296875 1040.3125 400.738281 1041.46875 395.289062 C 1042.535156 390.238281 1044.199219 385.332031 1046.421875 380.671875 C 1051.441406 371.261719 1049.875 359.695312 1042.535156 351.957031 C 1023.785156 332.769531 1001.710938 317.144531 977.378906 305.847656 L 975.160156 304.476562 L 971.570312 302.8125 C 964.691406 300.078125 963.878906 299.519531 962.769531 299.222656 C 960.289062 298.410156 957.8125 297.300781 955.332031 296.445312 C 953.964844 295.890625 952.855469 295.632812 951.488281 295.078125 C 947.34375 293.964844 947.34375 293.710938 947.046875 293.710938 L 944.269531 292.898438 C 942.902344 292.597656 941.789062 292.085938 940.421875 291.785156 L 933.800781 290.121094 C 932.6875 289.863281 931.578125 289.5625 930.765625 289.308594 L 929.953125 289.308594 C 926.621094 288.753906 923.589844 287.941406 920.300781 287.386719 C 919.742188 287.386719 919.1875 287.128906 918.632812 287.128906 C 915.300781 286.574219 912.011719 286.015625 908.679688 285.761719 C 908.121094 285.761719 907.566406 285.503906 907.011719 285.503906 C 904.789062 285.25 902.738281 285.25 900.390625 284.949219 L 897.269531 284.949219 C 891.503906 284.394531 887.359375 284.394531 883.46875 284.394531 C 871.542969 284.421875 859.640625 285.4375 847.878906 287.425781 C 829.015625 268.40625 806.851562 252.972656 782.46875 241.875 C 698.566406 203.566406 599.71875 221.273438 534.320312 286.316406 L 527.953125 285.503906 C 520.777344 284.949219 514.152344 284.394531 508.085938 284.394531 L 507.832031 284.394531 C 397.394531 284.890625 303.9375 366.128906 288.046875 475.441406 C 272.160156 584.753906 338.617188 689.246094 444.339844 721.175781 Z M 776.445312 942.964844 C 775.332031 942.964844 774.222656 943.222656 773.109375 943.222656 L 768.839844 944.332031 L 764.308594 946.253906 L 760.421875 949.289062 C 749.683594 962.636719 740.421875 970.289062 729.789062 975.527344 C 719.148438 980.753906 707.460938 983.484375 695.609375 983.519531 C 683.742188 983.617188 672.019531 980.878906 661.425781 975.527344 C 650.9375 970.292969 641.777344 962.738281 634.640625 953.433594 L 622.417969 944.332031 L 618.148438 943.222656 L 494.203125 942.964844 L 494.203125 830.574219 C 523 823.132812 552.21875 817.421875 581.703125 813.480469 C 582.515625 813.480469 583.367188 813.183594 584.179688 813.183594 C 572.425781 826.074219 573.199219 846.019531 585.914062 857.960938 C 598.628906 869.90625 618.578125 869.425781 630.707031 856.882812 C 642.832031 844.339844 642.644531 824.382812 630.28125 812.070312 L 630.023438 811.816406 C 648.523438 807.113281 671.722656 806.003906 695.480469 806.003906 C 719.234375 806.003906 742.476562 807.113281 764.78125 808.78125 C 763.4375 809.820312 762.15625 810.933594 760.933594 812.113281 C 750.703125 822.359375 748.625 838.199219 755.867188 850.738281 C 763.109375 863.277344 777.863281 869.390625 791.847656 865.652344 C 805.832031 861.910156 815.566406 849.242188 815.578125 834.761719 C 815.53125 826.816406 812.480469 819.183594 807.035156 813.394531 C 807.847656 813.394531 808.699219 813.695312 809.511719 813.695312 C 838.996094 817.636719 868.214844 823.34375 897.015625 830.789062 L 897.015625 943.179688 Z M 385.296875 384.945312 C 417.777344 352.382812 461.886719 334.097656 507.875 334.136719 C 513.941406 334.136719 518.898438 334.390625 523.339844 334.691406 C 528.53125 335.140625 533.695312 335.882812 538.804688 336.914062 L 543.761719 337.167969 C 550.078125 336.980469 556.085938 334.414062 560.597656 329.992188 L 560.851562 329.734375 C 561.152344 329.476562 561.40625 329.476562 561.664062 329.179688 C 578.011719 311.09375 597.945312 296.613281 620.199219 286.660156 C 642.34375 276.75 666.347656 271.667969 690.609375 271.746094 C 727.265625 271.375 763.035156 283.003906 792.464844 304.863281 C 783.972656 308.699219 775.6875 312.976562 767.640625 317.683594 C 732.597656 338.984375 704.132812 369.570312 685.394531 406.058594 C 680.757812 415.28125 676.707031 424.785156 673.261719 434.515625 C 669.730469 444.261719 666.960938 454.261719 664.972656 464.429688 C 662.378906 477.847656 671.152344 490.828125 684.5625 493.421875 C 697.976562 496.019531 710.957031 487.25 713.550781 473.832031 C 715.144531 465.960938 717.273438 458.210938 719.917969 450.628906 C 722.605469 443.042969 725.832031 435.660156 729.574219 428.535156 C 744.238281 400.109375 766.402344 376.242188 793.660156 359.519531 C 820.753906 342.980469 851.902344 334.28125 883.640625 334.390625 C 889.453125 334.390625 894.964844 334.648438 900.730469 335.203125 C 901.542969 335.203125 902.398438 335.460938 903.507812 335.460938 C 912.054688 336.570312 915.769531 337.128906 919.914062 337.9375 C 929.144531 340.417969 933.160156 341.230469 937.003906 342.640625 C 939.484375 343.453125 941.703125 344.304688 943.882812 345.117188 C 947.078125 346.148438 950.214844 347.347656 953.28125 348.707031 C 969.027344 355.570312 983.636719 364.792969 996.605469 376.058594 L 994.128906 385.160156 C 992.164062 394.144531 991.144531 403.3125 991.09375 412.507812 C 991.132812 458 1016.300781 499.746094 1056.507812 521.011719 C 1055.640625 533.066406 1053.507812 545 1050.140625 556.609375 L 1050.140625 557.164062 C 1049.03125 560.753906 1047.917969 564.042969 1046.808594 567.632812 C 1046.808594 567.890625 1046.550781 568.445312 1046.550781 568.746094 C 1045.4375 571.945312 1044.152344 575.082031 1042.707031 578.144531 L 1041.894531 579.8125 C 1040.527344 582.847656 1039.117188 585.625 1037.621094 588.359375 C 1035.144531 593.058594 1033.734375 595.835938 1032.238281 598.316406 C 1031.683594 599.128906 1031.128906 600.238281 1030.574219 601.09375 L 1020.917969 614.46875 L 1017.585938 618.742188 C 1014.550781 622.332031 1011.515625 625.921875 1008.183594 629.210938 L 1006.519531 630.878906 L 1005.707031 631.691406 C 1002.375 634.726562 999.339844 637.757812 995.75 640.792969 C 994.382812 642.160156 992.71875 643.273438 991.050781 644.683594 C 988.574219 646.605469 985.796875 648.527344 983.320312 650.496094 C 982.207031 651.304688 980.839844 652.160156 979.730469 652.972656 C 978.617188 653.785156 978.363281 653.785156 977.808594 654.339844 L 969.519531 659.296875 C 969.261719 659.554688 968.964844 659.554688 968.707031 659.851562 L 964.863281 662.074219 C 960.589844 664.296875 956.316406 666.347656 952.042969 668.144531 L 947.769531 669.808594 C 944.4375 671.175781 940.894531 672.289062 937.304688 673.398438 C 927.699219 676.222656 922.722656 677.421875 917.691406 678.355469 C 906.308594 680.492188 897.929688 690.238281 897.527344 701.816406 L 897.527344 779.933594 C 871.890625 773.867188 844.804688 768.609375 816.648438 764.765625 C 736.578125 754.089844 655.449219 754.089844 575.378906 764.765625 C 548.171875 768.394531 521.175781 773.457031 494.5 779.933594 L 494.5 729.851562 C 498.773438 730.105469 503.601562 730.40625 508.042969 730.40625 C 521.613281 730.40625 532.613281 719.40625 532.613281 705.835938 C 532.613281 692.265625 521.613281 681.261719 508.042969 681.261719 C 437.933594 681.121094 374.78125 638.839844 347.921875 574.066406 C 321.066406 509.289062 335.773438 434.714844 385.210938 384.988281 Z M 385.296875 384.945312 "/>
<path style=" stroke:none;fill-rule:nonzero;fill:rgb(0%,0%,0%);fill-opacity:1;" d="M 787.9375 1125.867188 C 817.433594 1114.144531 844.421875 1096.898438 867.449219 1075.054688 C 872.191406 1070.617188 874.949219 1064.457031 875.101562 1057.960938 C 875.253906 1051.464844 872.789062 1045.183594 868.261719 1040.527344 C 858.734375 1030.757812 843.148438 1030.398438 833.183594 1039.714844 C 814.558594 1057.214844 792.820312 1071.070312 769.09375 1080.566406 C 721.371094 1099.34375 668.308594 1099.34375 620.582031 1080.566406 C 596.835938 1071.109375 575.09375 1057.25 556.496094 1039.714844 C 546.636719 1030.410156 531.128906 1030.769531 521.714844 1040.527344 C 517.175781 1045.175781 514.703125 1051.460938 514.855469 1057.960938 C 515.007812 1064.460938 517.773438 1070.621094 522.527344 1075.054688 C 593.632812 1141.992188 697.011719 1161.792969 787.808594 1125.867188 Z M 787.9375 1125.867188 "/>
<path style=" stroke:none;fill-rule:nonzero;fill:rgb(0%,0%,0%);fill-opacity:1;" d="M 865.527344 465.882812 C 873.882812 476.59375 889.332031 478.503906 900.046875 470.15625 C 910.761719 461.695312 912.667969 446.179688 904.320312 435.371094 L 889.964844 417.425781 C 884.796875 409.804688 875.808594 405.714844 866.671875 406.824219 C 857.535156 407.929688 849.785156 414.054688 846.589844 422.6875 C 843.398438 431.324219 845.296875 441.019531 851.511719 447.808594 Z M 865.527344 465.882812 "/>
<path style=" stroke:none;fill-rule:nonzero;fill:rgb(0%,0%,0%);fill-opacity:1;" d="M 789.347656 558.914062 L 808.957031 570.796875 C 820.542969 577.957031 835.742188 574.371094 842.902344 562.78125 C 850.0625 551.195312 846.476562 535.992188 834.890625 528.832031 L 815.28125 516.695312 C 809.71875 513.242188 803.011719 512.148438 796.640625 513.644531 C 790.269531 515.144531 784.753906 519.117188 781.3125 524.6875 C 774.113281 536.363281 777.703125 551.664062 789.347656 558.914062 Z M 789.347656 558.914062 "/>
<path style=" stroke:none;fill-rule:nonzero;fill:rgb(0%,0%,0%);fill-opacity:1;" d="M 927.648438 584.042969 C 932.917969 587.933594 939.523438 589.570312 946 588.582031 C 952.476562 587.597656 958.296875 584.070312 962.167969 578.785156 L 975.714844 560.28125 C 983.128906 549.304688 980.5625 534.425781 969.894531 526.566406 C 959.230469 518.710938 944.261719 520.671875 935.980469 531.011719 L 922.433594 549.515625 C 918.539062 554.78125 916.898438 561.382812 917.878906 567.859375 C 918.855469 574.339844 922.371094 580.160156 927.648438 584.042969 Z M 927.648438 584.042969 "/>
<path style=" stroke:none;fill-rule:evenodd;fill:rgb(0%,0%,0%);fill-opacity:1;" d="M 3674.804688 249.292969 C 3651.457031 249.292969 3632.507812 268.007812 3632.507812 291.148438 L 3632.507812 430.007812 C 3632.507812 431.164062 3632.550781 432.300781 3632.679688 433.429688 L 3632.679688 581.378906 C 3632.59375 582.527344 3632.550781 583.675781 3632.550781 584.84375 C 3632.550781 630.144531 3651.042969 671.34375 3680.917969 701.203125 C 3710.835938 731.105469 3752.117188 749.621094 3797.703125 749.621094 C 3821.050781 749.621094 3840 730.886719 3840 707.765625 C 3840 684.644531 3821.050781 665.90625 3797.703125 665.90625 C 3775.421875 665.90625 3755.238281 656.894531 3740.695312 642.351562 C 3726.113281 627.785156 3717.101562 607.421875 3717.101562 584.84375 C 3717.101562 583.527344 3717.015625 582.222656 3716.890625 580.929688 L 3716.890625 433.554688 C 3716.976562 432.382812 3717.101562 431.203125 3717.101562 430.007812 L 3717.101562 291.148438 C 3717.101562 268.007812 3698.152344 249.292969 3674.804688 249.292969 Z M 3674.804688 249.292969 "/>
</g>
</svg>
