<?xml version="1.0" encoding="UTF-8"?>
<!DOCTYPE svg PUBLIC "-//W3C//DTD SVG 1.1//EN" "http://www.w3.org/Graphics/SVG/1.1/DTD/svg11.dtd">
<svg xmlns="http://www.w3.org/2000/svg" version="1.1" width="600px" height="337px" style="shape-rendering:geometricPrecision; text-rendering:geometricPrecision; image-rendering:optimizeQuality; fill-rule:evenodd; clip-rule:evenodd" xmlns:xlink="http://www.w3.org/1999/xlink">
<g><path style="opacity:0.059" fill="#f6e96c" d="M 290.5,27.5 C 287.167,27.5 283.833,27.5 280.5,27.5C 281.694,26.2227 283.36,25.5561 285.5,25.5C 287.64,25.5561 289.306,26.2227 290.5,27.5 Z"/></g>
<g><path style="opacity:0.059" fill="#f7ea6d" d="M 323.5,27.5 C 321.5,27.5 319.5,27.5 317.5,27.5C 318.152,26.2749 319.319,25.6083 321,25.5C 322.167,25.6667 323.333,25.8333 324.5,26C 323.944,26.3826 323.611,26.8826 323.5,27.5 Z"/></g>
<g><path style="opacity:0.987" fill="#cb0a3e" d="M 280.5,27.5 C 283.833,27.5 287.167,27.5 290.5,27.5C 290.813,30.2469 290.48,32.9135 289.5,35.5C 287.167,37.6667 284.833,39.8333 282.5,42C 284.727,42.121 286.56,42.9544 288,44.5C 292.206,37.4976 298.039,32.4976 305.5,29.5C 307.205,30.545 308.705,31.8783 310,33.5C 312.32,31.0787 314.82,29.0787 317.5,27.5C 319.5,27.5 321.5,27.5 323.5,27.5C 325.026,28.4919 325.693,29.9919 325.5,32C 325.527,35.902 324.194,39.2353 321.5,42C 323.061,42.3176 324.228,43.1509 325,44.5C 327.852,43.1353 330.518,43.4686 333,45.5C 335.78,44.4077 338.447,43.4077 341,42.5C 345.141,42.6568 348.807,43.9901 352,46.5C 355.757,43.0645 360.257,41.5645 365.5,42C 365.028,39.6013 366.028,37.6013 368.5,36C 374.477,34.2797 377.144,36.4464 376.5,42.5C 379.5,42.5 382.5,42.5 385.5,42.5C 385.5,44.8333 385.5,47.1667 385.5,49.5C 383.799,49.9662 382.299,49.9662 381,49.5C 380.8,53.7533 380.3,57.92 379.5,62C 376.899,63.4706 374.233,64.6373 371.5,65.5C 368.824,64.9372 366.658,63.6039 365,61.5C 360.072,64.6473 356.739,68.9806 355,74.5C 354.667,74.1667 354.333,73.8333 354,73.5C 348.035,80.4649 342.535,80.1316 337.5,72.5C 334.406,75.9632 330.573,77.9632 326,78.5C 323.879,78.3025 322.046,77.6358 320.5,76.5C 318.326,69.9555 320.659,65.6221 327.5,63.5C 327.762,62.0222 327.429,60.6888 326.5,59.5C 325.614,60.325 325.281,61.325 325.5,62.5C 323.01,63.4253 320.51,64.4253 318,65.5C 316.187,65.1734 314.52,64.5067 313,63.5C 310.458,64.9019 307.792,65.9019 305,66.5C 303.93,64.8858 302.43,63.5525 300.5,62.5C 299.808,63.0253 299.308,63.6919 299,64.5C 298.439,63.9781 297.772,63.6448 297,63.5C 295.78,64.3881 294.447,65.0548 293,65.5C 290.832,64.4985 288.665,63.4985 286.5,62.5C 282.039,66.0435 277.372,66.3768 272.5,63.5C 271.833,63.8333 271.167,64.1667 270.5,64.5C 271.247,64.7365 272.08,65.0698 273,65.5C 273.527,69.4792 271.694,71.4792 267.5,71.5C 260.93,71.4254 258.096,68.092 259,61.5C 255.554,68.7178 250.721,69.8845 244.5,65C 245.33,62.1983 246.163,59.365 247,56.5C 247.903,55.2986 249.069,54.4652 250.5,54C 249.24,52.887 248.073,52.7203 247,53.5C 246.333,50.8333 246.333,48.1667 247,45.5C 254.491,40.3995 262.324,35.7328 270.5,31.5C 272.132,32.2974 273.632,33.2974 275,34.5C 276.194,32.9762 277.694,31.8096 279.5,31C 279.167,30.6667 278.833,30.3333 278.5,30C 279.381,29.2917 280.047,28.4584 280.5,27.5 Z M 298.5,53.5 C 298.783,52.7109 299.283,52.0442 300,51.5C 300.528,52.816 300.028,53.4827 298.5,53.5 Z"/></g>
<g><path style="opacity:1" fill="#f5e70b" d="M 216.5,68.5 C 217.034,82.3474 218.034,96.0141 219.5,109.5C 219.5,110.167 219.5,110.833 219.5,111.5C 219.824,115.555 219.491,119.555 218.5,123.5C 214.423,125.707 210.09,127.041 205.5,127.5C 202.447,118.251 197.114,110.418 189.5,104C 188.391,103.362 187.225,102.862 186,102.5C 184.97,102.836 184.47,103.503 184.5,104.5C 183.234,103.91 181.901,103.41 180.5,103C 179.167,102.333 179.167,101.667 180.5,101C 177.475,100.867 174.808,99.8665 172.5,98C 170.559,97.2571 168.726,97.4238 167,98.5C 165.874,97.0564 164.374,96.3898 162.5,96.5C 148.764,98.7716 140.097,106.272 136.5,119C 131.927,129.239 129.093,140.072 128,151.5C 125.181,176.644 128.848,200.31 139,222.5C 142.083,226.063 145.25,229.396 148.5,232.5C 148.215,234.288 148.548,235.955 149.5,237.5C 164.755,244.695 177.255,241.362 187,227.5C 188.743,223.016 190.743,218.683 193,214.5C 193.494,212.866 193.66,211.199 193.5,209.5C 203.201,210.2 212.868,211.2 222.5,212.5C 219.895,227.504 213.395,240.504 203,251.5C 202.517,252.448 202.351,253.448 202.5,254.5C 198.33,255.826 195.163,258.492 193,262.5C 192.667,262.167 192.333,261.833 192,261.5C 187.056,264.706 182.222,267.373 177.5,269.5C 176.914,269.291 176.414,268.957 176,268.5C 172.899,270.72 169.565,271.053 166,269.5C 164.312,271.045 162.312,272.045 160,272.5C 159,271.167 158,271.167 157,272.5C 156.12,269.213 154.287,268.546 151.5,270.5C 149.626,270.61 148.126,269.944 147,268.5C 144.91,269.791 143.576,269.124 143,266.5C 140.789,266.623 138.622,266.623 136.5,266.5C 134.451,263.482 132.117,261.482 129.5,260.5C 129.539,259.417 129.873,258.417 130.5,257.5C 114.4,242.979 104.233,224.979 100,203.5C 93.8038,171.807 96.1372,140.807 107,110.5C 113.583,95.2575 123.75,83.0908 137.5,74C 154.439,65.589 171.439,65.4223 188.5,73.5C 188.5,70.8333 188.5,68.1667 188.5,65.5C 197.167,65.5 205.833,65.5 214.5,65.5C 214.285,67.1788 214.952,68.1788 216.5,68.5 Z"/></g>
<g><path style="opacity:0.02" fill="#e1cb4f" d="M 320.5,76.5 C 319.833,77.1667 319.833,77.1667 320.5,76.5 Z"/></g>
<g><path style="opacity:0.694" fill="#fbf075" d="M 349.5,92.5 C 334.908,91.3513 320.241,91.1847 305.5,92C 305,92.5 304.5,93 304,93.5C 303.5,100.158 303.334,106.825 303.5,113.5C 300.532,113.374 298.532,111.874 297.5,109C 297.875,101.378 298.875,93.8782 300.5,86.5C 316.156,85.3338 331.823,85.1671 347.5,86C 349.229,87.7889 349.896,89.9556 349.5,92.5 Z"/></g>
<g><path style="opacity:0.759" fill="#fbf178" d="M 413.5,92.5 C 412.352,93.895 411.352,93.7284 410.5,92C 395.837,91.5001 381.17,91.3334 366.5,91.5C 365.973,99.7005 366.64,107.7 368.5,115.5C 366.245,113.92 364.078,112.92 362,112.5C 361.333,104.167 361.333,95.8333 362,87.5C 362.5,87 363,86.5 363.5,86C 379.5,85.3333 395.5,85.3333 411.5,86C 413.229,87.7889 413.896,89.9556 413.5,92.5 Z"/></g>
<g><path style="opacity:0.659" fill="#f9ed74" d="M 268.5,113.5 C 269.43,106.223 269.764,98.8896 269.5,91.5C 254.83,91.3334 240.163,91.5001 225.5,92C 224.52,99.0787 224.187,106.245 224.5,113.5C 222.486,113.608 220.82,112.942 219.5,111.5C 219.5,110.833 219.5,110.167 219.5,109.5C 219.186,101.913 219.519,94.4129 220.5,87C 237.497,86.5001 254.497,86.3334 271.5,86.5C 271.666,95.1731 271.5,103.84 271,112.5C 270.329,113.252 269.496,113.586 268.5,113.5 Z"/></g>
<g><path style="opacity:0.928" fill="#faef74" d="M 495.5,98.5 C 493.932,99.4731 492.265,99.6397 490.5,99C 484.225,95.5286 477.559,93.1952 470.5,92C 453.503,91.5001 436.503,91.3334 419.5,91.5C 419.5,98.8333 419.5,106.167 419.5,113.5C 418.127,113.657 416.793,113.49 415.5,113C 415.833,112.667 416.167,112.333 416.5,112C 415.204,108.091 414.537,103.925 414.5,99.5C 414.667,95.5 414.833,91.5 415,87.5C 415.5,87 416,86.5 416.5,86C 435.525,85.16 454.525,85.4933 473.5,87C 482.211,88.3136 489.544,92.147 495.5,98.5 Z"/></g>
<g><path style="opacity:1" fill="#f5e70a" d="M 268.5,113.5 C 267.448,113.351 266.448,113.517 265.5,114C 264.406,115.78 263.406,117.614 262.5,119.5C 261.5,152.827 261.167,186.16 261.5,219.5C 267.5,219.5 273.5,219.5 279.5,219.5C 273.69,220.49 267.69,220.823 261.5,220.5C 261.5,221.833 261.5,223.167 261.5,224.5C 268.841,224.666 276.174,224.5 283.5,224C 287.301,221.386 289.634,217.886 290.5,213.5C 294.877,213.577 299.21,214.077 303.5,215C 305.35,215.69 306.684,216.856 307.5,218.5C 306.021,226.014 304.854,233.68 304,241.5C 303.5,242 303,242.5 302.5,243C 303.724,247.169 302.724,250.836 299.5,254C 297.236,254.236 295.069,254.736 293,255.5C 270.5,254.172 248,254.172 225.5,255.5C 224.534,247.92 224.201,240.253 224.5,232.5C 225.873,232.657 227.207,232.49 228.5,232C 229.705,230.624 231.038,229.458 232.5,228.5C 233.222,228.082 233.722,227.416 234,226.5C 234.831,189.998 234.664,153.664 233.5,117.5C 232.076,113.229 229.743,112.562 226.5,115.5C 226.167,114.5 225.5,113.833 224.5,113.5C 224.187,106.245 224.52,99.0787 225.5,92C 240.163,91.5001 254.83,91.3334 269.5,91.5C 269.764,98.8896 269.43,106.223 268.5,113.5 Z"/></g>
<g><path style="opacity:1" fill="#f5e70c" d="M 349.5,92.5 C 351.426,97.6045 351.926,102.938 351,108.5C 350.036,110.365 348.869,112.032 347.5,113.5C 344.14,112.79 342.307,114.124 342,117.5C 341.333,148.167 341.333,178.833 342,209.5C 343.276,212.599 345.11,215.266 347.5,217.5C 346.563,221.73 348.229,224.23 352.5,225C 363.853,227.291 371.686,223.125 376,212.5C 376.833,180.495 376.667,148.495 375.5,116.5C 374.579,114.244 372.912,113.244 370.5,113.5C 370.421,114.93 370.754,116.264 371.5,117.5C 371.043,118.298 370.376,118.631 369.5,118.5C 369.443,117.391 369.11,116.391 368.5,115.5C 366.64,107.7 365.973,99.7005 366.5,91.5C 381.17,91.3334 395.837,91.5001 410.5,92C 411.352,93.7284 412.352,93.895 413.5,92.5C 413.666,98.8421 413.5,105.175 413,111.5C 410.076,112.734 407.409,114.401 405,116.5C 404.667,148.5 404.333,180.5 404,212.5C 403.73,219.248 402.064,225.581 399,231.5C 395.379,235.91 391.879,240.41 388.5,245C 384.052,247.277 379.719,249.777 375.5,252.5C 373.59,253.548 371.756,253.548 370,252.5C 369.581,253.672 368.915,254.672 368,255.5C 359.723,254.256 351.723,254.256 344,255.5C 343.492,253.096 342.325,252.429 340.5,253.5C 339.522,253.023 338.689,252.357 338,251.5C 336.951,252.517 335.784,252.684 334.5,252C 332.505,249.714 330.505,248.214 328.5,247.5C 328.66,245.801 328.494,244.134 328,242.5C 320.478,235.792 315.811,227.458 314,217.5C 313.667,184.167 313.333,150.833 313,117.5C 312.027,115.36 310.527,113.693 308.5,112.5C 307.478,112.855 306.811,113.522 306.5,114.5C 305.391,114.443 304.391,114.11 303.5,113.5C 303.334,106.825 303.5,100.158 304,93.5C 304.5,93 305,92.5 305.5,92C 320.241,91.1847 334.908,91.3513 349.5,92.5 Z"/></g>
<g><path style="opacity:1" fill="#f5e70b" d="M 495.5,98.5 C 503.482,104.294 508.648,111.961 511,121.5C 512.933,133.179 511.266,144.179 506,154.5C 504.166,156.676 502.333,158.842 500.5,161C 509.254,167.765 514.754,176.598 517,187.5C 517.667,197.167 517.667,206.833 517,216.5C 515.044,223.751 511.544,230.084 506.5,235.5C 505.571,236.689 505.238,238.022 505.5,239.5C 501.651,239.502 498.985,241.335 497.5,245C 490.874,248.538 484.041,251.704 477,254.5C 474.754,254.221 472.254,253.887 469.5,253.5C 453.636,253.78 437.636,253.446 421.5,252.5C 420.538,245.892 420.205,239.226 420.5,232.5C 424.987,232.18 427.82,229.847 429,225.5C 429.667,189.5 429.667,153.5 429,117.5C 428.027,115.36 426.527,113.693 424.5,112.5C 423.478,112.855 422.811,113.522 422.5,114.5C 421.391,114.443 420.391,114.11 419.5,113.5C 419.5,106.167 419.5,98.8333 419.5,91.5C 436.503,91.3334 453.503,91.5001 470.5,92C 477.559,93.1952 484.225,95.5286 490.5,99C 492.265,99.6397 493.932,99.4731 495.5,98.5 Z M 473.5,124.5 C 477.79,129.602 478.29,134.936 475,140.5C 470.229,145.299 464.396,147.299 457.5,146.5C 457.5,137.833 457.5,129.167 457.5,120.5C 463.405,120.207 468.738,121.54 473.5,124.5 Z M 480.5,188.5 C 488.55,202.787 484.883,212.787 469.5,218.5C 465.547,219.362 461.547,219.695 457.5,219.5C 457.5,206.833 457.5,194.167 457.5,181.5C 466.36,180.293 474.026,182.626 480.5,188.5 Z"/></g>
<g><path style="opacity:0.02" fill="#e1cb4f" d="M 347.5,113.5 C 348.833,114.167 348.833,114.167 347.5,113.5 Z"/></g>
<g><path style="opacity:0.827" fill="#fbf176" d="M 469.5,253.5 C 469.217,254.289 468.717,254.956 468,255.5C 450.083,254.568 432.25,254.235 414.5,254.5C 414.5,245.833 414.5,237.167 414.5,228.5C 417.845,227.743 420.679,226.076 423,223.5C 423.82,187.125 423.654,150.792 422.5,114.5C 422.811,113.522 423.478,112.855 424.5,112.5C 426.527,113.693 428.027,115.36 429,117.5C 429.667,153.5 429.667,189.5 429,225.5C 427.82,229.847 424.987,232.18 420.5,232.5C 420.205,239.226 420.538,245.892 421.5,252.5C 437.636,253.446 453.636,253.78 469.5,253.5 Z"/></g>
<g><path style="opacity:1" fill="#f9ee5b" d="M 233.5,117.5 C 234.664,153.664 234.831,189.998 234,226.5C 233.722,227.416 233.222,228.082 232.5,228.5C 233.481,191.531 233.815,154.531 233.5,117.5 Z"/></g>
<g><path style="opacity:0.905" fill="#f9ed74" d="M 347.5,217.5 C 354.936,220.92 361.602,219.92 367.5,214.5C 368.612,211.519 369.946,208.686 371.5,206C 370.167,177.333 370.167,148.667 371.5,120C 370.584,119.722 369.918,119.222 369.5,118.5C 370.376,118.631 371.043,118.298 371.5,117.5C 370.754,116.264 370.421,114.93 370.5,113.5C 372.912,113.244 374.579,114.244 375.5,116.5C 376.667,148.495 376.833,180.495 376,212.5C 371.686,223.125 363.853,227.291 352.5,225C 348.229,224.23 346.563,221.73 347.5,217.5 Z"/></g>
<g><path style="opacity:0.941" fill="#fbf077" d="M 216.5,68.5 C 214.952,68.1788 214.285,67.1788 214.5,65.5C 205.833,65.5 197.167,65.5 188.5,65.5C 188.5,68.1667 188.5,70.8333 188.5,73.5C 171.439,65.4223 154.439,65.589 137.5,74C 123.75,83.0908 113.583,95.2575 107,110.5C 96.1372,140.807 93.8038,171.807 100,203.5C 104.233,224.979 114.4,242.979 130.5,257.5C 129.873,258.417 129.539,259.417 129.5,260.5C 128.448,260.649 127.448,260.483 126.5,260C 121.86,254.694 116.86,249.694 111.5,245C 111.833,244.667 112.167,244.333 112.5,244C 109.158,239.636 105.824,235.302 102.5,231C 99.0454,222.054 96.3788,212.554 94.5,202.5C 93.6919,202.192 93.0253,201.692 92.5,201C 92.5432,179.251 92.5432,157.251 92.5,135C 94.9157,131.26 96.0823,127.094 96,122.5C 101.344,101.814 113.344,84.1474 132,69.5C 132.333,69.8333 132.667,70.1667 133,70.5C 137.246,66.9775 141.912,65.3108 147,65.5C 151.447,63.762 156.114,62.4287 161,61.5C 163.755,62.4053 166.588,63.0719 169.5,63.5C 172.647,61.9553 174.813,62.622 176,65.5C 176.561,64.9781 177.228,64.6448 178,64.5C 179.3,65.7073 180.8,66.3739 182.5,66.5C 182.5,64.5 182.5,62.5 182.5,60.5C 193.52,60.1679 204.52,60.5012 215.5,61.5C 216.374,63.7466 216.708,66.0799 216.5,68.5 Z"/></g>
<g><path style="opacity:0.366" fill="#faee73" d="M 205.5,127.5 C 203.395,128.819 201.395,128.486 199.5,126.5C 198.641,122.319 196.475,118.986 193,116.5C 191.638,111.418 188.804,107.418 184.5,104.5C 184.47,103.503 184.97,102.836 186,102.5C 187.225,102.862 188.391,103.362 189.5,104C 197.114,110.418 202.447,118.251 205.5,127.5 Z"/></g>
<g><path style="opacity:0.901" fill="#fbf17b" d="M 233.5,117.5 C 233.815,154.531 233.481,191.531 232.5,228.5C 231.038,229.458 229.705,230.624 228.5,232C 227.207,232.49 225.873,232.657 224.5,232.5C 224.201,240.253 224.534,247.92 225.5,255.5C 225.565,255.938 225.399,256.272 225,256.5C 223.333,255.167 221.667,253.833 220,252.5C 219.609,246.536 219.109,240.869 218.5,235.5C 218.915,233.091 219.582,230.758 220.5,228.5C 223.251,227.191 225.751,225.524 228,223.5C 228.167,205.667 228.333,187.833 228.5,170C 228.487,151.615 227.82,133.449 226.5,115.5C 229.743,112.562 232.076,113.229 233.5,117.5 Z"/></g>
<g><path style="opacity:1" fill="#fbf078" d="M 457.5,146.5 C 464.396,147.299 470.229,145.299 475,140.5C 478.29,134.936 477.79,129.602 473.5,124.5C 474.802,123.643 476.135,123.143 477.5,123C 484.716,130.042 485.382,137.708 479.5,146C 472.707,151.025 465.04,152.859 456.5,151.5C 456.216,149.585 456.549,147.919 457.5,146.5 Z"/></g>
<g><path style="opacity:0.971" fill="#fbf177" d="M 457.5,219.5 C 461.547,219.695 465.547,219.362 469.5,218.5C 484.883,212.787 488.55,202.787 480.5,188.5C 480.185,186.774 480.019,185.107 480,183.5C 490.37,190.32 493.37,199.653 489,211.5C 485.079,218.431 479.246,222.598 471.5,224C 466.845,224.499 462.179,224.666 457.5,224.5C 456.904,222.602 456.904,220.935 457.5,219.5 Z"/></g>
<g><path style="opacity:0.944" fill="#fbf076" d="M 222.5,212.5 C 212.868,211.2 203.201,210.2 193.5,209.5C 193.66,211.199 193.494,212.866 193,214.5C 190.743,218.683 188.743,223.016 187,227.5C 177.255,241.362 164.755,244.695 149.5,237.5C 148.548,235.955 148.215,234.288 148.5,232.5C 160.776,238.745 171.443,236.578 180.5,226C 180.167,225.667 179.833,225.333 179.5,225C 184.223,218.966 187.223,212.133 188.5,204.5C 199.549,204.641 210.549,205.474 221.5,207C 222.406,208.699 222.739,210.533 222.5,212.5 Z"/></g>
<g><path style="opacity:0.99" fill="#fbf179" d="M 328.5,247.5 C 327.234,246.91 325.901,246.41 324.5,246C 321,241.833 317.5,237.667 314,233.5C 311.539,227.988 309.539,222.322 308,216.5C 307.536,217.094 307.369,217.761 307.5,218.5C 306.684,216.856 305.35,215.69 303.5,215C 299.21,214.077 294.877,213.577 290.5,213.5C 289.634,217.886 287.301,221.386 283.5,224C 276.174,224.5 268.841,224.666 261.5,224.5C 261.5,223.167 261.5,221.833 261.5,220.5C 267.69,220.823 273.69,220.49 279.5,219.5C 280.451,217.38 281.951,215.714 284,214.5C 285.122,212.58 285.956,210.58 286.5,208.5C 291.69,208.441 296.857,208.775 302,209.5C 303.981,209.629 305.647,210.296 307,211.5C 307.667,180.833 307.667,150.167 307,119.5C 305.372,118.038 305.205,116.372 306.5,114.5C 306.811,113.522 307.478,112.855 308.5,112.5C 310.527,113.693 312.027,115.36 313,117.5C 313.333,150.833 313.667,184.167 314,217.5C 315.811,227.458 320.478,235.792 328,242.5C 328.494,244.134 328.66,245.801 328.5,247.5 Z"/></g>
<g><path style="opacity:0.967" fill="#110406" d="M 343.5,272.5 C 343.937,275.807 343.27,278.807 341.5,281.5C 341.624,282.107 341.957,282.44 342.5,282.5C 339.933,287.239 336.433,291.239 332,294.5C 332.019,296.107 332.185,297.774 332.5,299.5C 335.504,298.243 338.337,296.577 341,294.5C 341.333,293.5 341.667,292.5 342,291.5C 344.209,290.08 346.209,288.413 348,286.5C 350.283,282.243 352.783,278.076 355.5,274C 358.883,270.913 362.883,269.913 367.5,271C 370.29,273.21 371.123,276.044 370,279.5C 367.651,284.212 364.817,288.545 361.5,292.5C 360.035,291.391 359.035,291.891 358.5,294C 357.552,294.483 356.552,294.649 355.5,294.5C 355.214,296.277 354.547,297.944 353.5,299.5C 353.556,300.737 354.056,301.737 355,302.5C 358.216,300.807 361.383,298.973 364.5,297C 367.445,292.055 371.112,287.722 375.5,284C 375.034,282.701 375.034,281.201 375.5,279.5C 377.2,279.374 378.7,278.707 380,277.5C 380.772,277.645 381.439,277.978 382,278.5C 385.121,272.761 389.954,270.928 396.5,273C 397.667,274.167 398.833,275.333 400,276.5C 405.92,269.684 412.253,269.017 419,274.5C 418.848,276.519 418.348,278.519 417.5,280.5C 415.143,280.337 412.81,280.503 410.5,281C 407.197,283.628 403.864,286.295 400.5,289C 405.914,289.768 410.914,291.601 415.5,294.5C 417.34,299.5 416.173,303.5 412,306.5C 408.843,307.202 405.843,308.202 403,309.5C 400.681,308.291 398.181,307.458 395.5,307C 395.833,306.667 396.167,306.333 396.5,306C 395.304,304.636 394.304,303.136 393.5,301.5C 394.833,299.5 396.167,297.5 397.5,295.5C 395.455,293.949 393.955,291.949 393,289.5C 392.667,286.167 392.333,282.833 392,279.5C 389.724,283.659 387.891,287.993 386.5,292.5C 384.859,294.203 383.859,296.37 383.5,299C 384.056,299.383 384.389,299.883 384.5,300.5C 383.694,301.997 383.028,303.664 382.5,305.5C 377.365,307.468 374.198,305.801 373,300.5C 370.545,301.743 369.378,303.743 369.5,306.5C 367.097,306.393 365.264,307.393 364,309.5C 363.667,309.167 363.333,308.833 363,308.5C 359.58,310.123 355.913,311.123 352,311.5C 349.318,308.473 346.985,305.139 345,301.5C 339.797,307.062 334.13,307.728 328,303.5C 327.819,306.695 327.319,309.695 326.5,312.5C 323.833,312.5 321.167,312.5 318.5,312.5C 318.12,308.905 317.62,305.572 317,302.5C 314.833,304.667 312.667,306.833 310.5,309C 305.95,309.722 301.616,309.222 297.5,307.5C 297.392,305.217 296.559,303.217 295,301.5C 293.36,303.923 291.027,304.923 288,304.5C 285.958,304.385 283.958,304.051 282,303.5C 280.864,302.217 279.531,301.217 278,300.5C 275.403,301.429 273.403,303.096 272,305.5C 269.595,304.726 267.095,304.226 264.5,304C 262,297.753 262,291.42 264.5,285C 263.027,283.674 262.194,282.174 262,280.5C 258.253,288.802 255.42,297.469 253.5,306.5C 251.076,306.808 248.743,306.474 246.5,305.5C 245.77,302.891 245.27,300.224 245,297.5C 242.616,301.893 239.449,305.726 235.5,309C 234.207,309.49 232.873,309.657 231.5,309.5C 229.698,308.542 227.698,307.875 225.5,307.5C 224.5,307.5 223.5,307.5 222.5,307.5C 222.703,305.61 222.037,304.11 220.5,303C 220.957,302.586 221.291,302.086 221.5,301.5C 219.74,298.788 219.073,295.788 219.5,292.5C 220.833,292.5 221.5,291.833 221.5,290.5C 220.527,288.932 220.36,287.265 221,285.5C 222.664,282.515 224.331,279.515 226,276.5C 230.135,272.809 234.969,271.642 240.5,273C 244.025,276.487 244.358,280.32 241.5,284.5C 239.821,286.104 237.821,286.771 235.5,286.5C 235.662,284.473 235.495,282.473 235,280.5C 233.417,282.911 232.417,285.578 232,288.5C 231.667,288.167 231.333,287.833 231,287.5C 229.436,292.132 229.269,296.799 230.5,301.5C 235.805,295.689 240.972,289.689 246,283.5C 246.319,278.277 248.486,276.943 252.5,279.5C 255.534,272.986 260.534,270.819 267.5,273C 268.893,274.171 269.727,275.671 270,277.5C 272.719,276.556 275.552,276.223 278.5,276.5C 279.216,279.012 280.216,279.012 281.5,276.5C 283.743,275.526 286.076,275.192 288.5,275.5C 288.276,282.287 287.276,288.954 285.5,295.5C 286.833,296.833 288.167,296.833 289.5,295.5C 290.48,294.019 291.647,292.685 293,291.5C 295.965,285.804 299.465,279.971 303.5,274C 307.428,272.675 311.428,272.342 315.5,273C 319.461,277.084 319.461,281.251 315.5,285.5C 313.955,286.452 312.288,286.785 310.5,286.5C 310.662,284.473 310.495,282.473 310,280.5C 308.417,282.911 307.417,285.578 307,288.5C 306.667,288.167 306.333,287.833 306,287.5C 304.436,292.132 304.269,296.799 305.5,301.5C 310.472,296.022 315.306,290.355 320,284.5C 320.516,279.375 321.683,274.542 323.5,270C 322.892,268.769 322.559,267.436 322.5,266C 323.805,262.605 324.471,259.105 324.5,255.5C 327.579,255.26 330.579,255.593 333.5,256.5C 334.799,258.307 334.632,259.973 333,261.5C 332.333,264.5 332.333,267.5 333,270.5C 336.892,269.182 340.392,269.849 343.5,272.5 Z M 403.5,299.5 C 403.517,297.972 404.184,297.472 405.5,298C 404.956,298.717 404.289,299.217 403.5,299.5 Z"/></g>
<g><path style="opacity:0.047" fill="#5a0e1d" d="M 343.5,272.5 C 344.638,275.304 344.805,278.304 344,281.5C 343.617,282.056 343.117,282.389 342.5,282.5C 341.957,282.44 341.624,282.107 341.5,281.5C 343.27,278.807 343.937,275.807 343.5,272.5 Z"/></g>
<g><path style="opacity:0.047" fill="#51171c" d="M 288.5,275.5 C 286.076,275.192 283.743,275.526 281.5,276.5C 280.216,279.012 279.216,279.012 278.5,276.5C 281.774,274.5 285.108,274.167 288.5,275.5 Z"/></g>
<g><path style="opacity:0.227" fill="#ba0139" d="M 221.5,290.5 C 221.5,291.833 220.833,292.5 219.5,292.5C 219.5,291.167 220.167,290.5 221.5,290.5 Z"/></g>
<g><path style="opacity:0.047" fill="#712025" d="M 386.5,292.5 C 386.037,295.33 385.371,297.997 384.5,300.5C 384.389,299.883 384.056,299.383 383.5,299C 383.859,296.37 384.859,294.203 386.5,292.5 Z"/></g>
<g><path style="opacity:0.584" fill="#965c33" d="M 225.5,307.5 C 227.698,307.875 229.698,308.542 231.5,309.5C 228.918,309.975 226.918,309.308 225.5,307.5 Z"/></g>
<g><path style="opacity:0.059" fill="#f8eb60" d="M 318.5,312.5 C 321.167,312.5 323.833,312.5 326.5,312.5C 325.666,313.748 324.333,314.415 322.5,314.5C 320.667,314.415 319.334,313.748 318.5,312.5 Z"/></g>
</svg>
